<svg width="1366" height="3226" viewBox="0 0 1366 3226" fill="none" xmlns="http://www.w3.org/2000/svg">
<g clip-path="url(#clip0_26_77)">
<ellipse cx="-107.5" cy="93" rx="340.5" ry="328" fill="#82C3EC" fill-opacity="0.6"/>
<circle cx="691" cy="259" r="100" fill="#82C3EC" fill-opacity="0.3"/>
<circle cx="75.5" cy="393.5" r="61.5" fill="#82C3EC" fill-opacity="0.3"/>
<circle cx="386.5" cy="613.5" r="61.5" fill="#82C3EC" fill-opacity="0.3"/>
<circle cx="378" cy="359" r="45" fill="#82C3EC" fill-opacity="0.3"/>
<circle cx="945" cy="712" r="45" fill="#82C3EC" fill-opacity="0.3"/>
<circle cx="1157" cy="561" r="67" fill="#82C3EC" fill-opacity="0.3"/>
<circle cx="814" cy="628" r="45" fill="#82C3EC" fill-opacity="0.3"/>
<ellipse cx="242.5" cy="209.5" rx="242.5" ry="209.5" transform="matrix(-1 0 0 1 1529 647)" fill="#82C3EC" fill-opacity="0.6"/>
<circle cx="100" cy="100" r="100" transform="matrix(-1 0 0 1 275 746)" fill="#82C3EC" fill-opacity="0.3"/>
<circle cx="61.5" cy="61.5" r="61.5" transform="matrix(-1 0 0 1 1051 1031)" fill="#82C3EC" fill-opacity="0.3"/>
<circle cx="61.5" cy="61.5" r="61.5" transform="matrix(-1 0 0 1 735 1128)" fill="#82C3EC" fill-opacity="0.3"/>
<circle cx="45" cy="45" r="45" transform="matrix(-1 0 0 1 740 900)" fill="#82C3EC" fill-opacity="0.3"/>
<circle cx="45" cy="45" r="45" transform="matrix(-1 0 0 1 165 1366)" fill="#82C3EC" fill-opacity="0.3"/>
<circle cx="45" cy="45" r="45" transform="matrix(-1 0 0 1 415 1013)" fill="#82C3EC" fill-opacity="0.3"/>
<circle cx="34.5" cy="34.5" r="34.5" transform="matrix(-1 0 0 1 421 1305)" fill="#82C3EC" fill-opacity="0.3"/>
<ellipse cx="-58.5" cy="1739" rx="340.5" ry="328" fill="#82C3EC" fill-opacity="0.6"/>
<circle cx="740" cy="1905" r="100" fill="#82C3EC" fill-opacity="0.3"/>
<circle cx="124.5" cy="2039.5" r="61.5" fill="#82C3EC" fill-opacity="0.3"/>
<circle cx="435.5" cy="2259.5" r="61.5" fill="#82C3EC" fill-opacity="0.3"/>
<circle cx="427" cy="2005" r="45" fill="#82C3EC" fill-opacity="0.3"/>
<circle cx="994" cy="2358" r="45" fill="#82C3EC" fill-opacity="0.3"/>
<circle cx="1206" cy="2207" r="67" fill="#82C3EC" fill-opacity="0.3"/>
<circle cx="863" cy="2274" r="45" fill="#82C3EC" fill-opacity="0.3"/>
<circle cx="67" cy="67" r="67" transform="matrix(-1 0 0 1 24 2850)" fill="#82C3EC" fill-opacity="0.3"/>
<ellipse cx="242.5" cy="209.5" rx="242.5" ry="209.5" transform="matrix(-1 0 0 1 1578 2293)" fill="#82C3EC" fill-opacity="0.6"/>
<circle cx="100" cy="100" r="100" transform="matrix(-1 0 0 1 324 2392)" fill="#82C3EC" fill-opacity="0.3"/>
<circle cx="61.5" cy="61.5" r="61.5" transform="matrix(-1 0 0 1 1100 2677)" fill="#82C3EC" fill-opacity="0.3"/>
<circle cx="61.5" cy="61.5" r="61.5" transform="matrix(-1 0 0 1 784 2774)" fill="#82C3EC" fill-opacity="0.3"/>
<circle cx="45" cy="45" r="45" transform="matrix(-1 0 0 1 789 2546)" fill="#82C3EC" fill-opacity="0.3"/>
<circle cx="45" cy="45" r="45" transform="matrix(-1 0 0 1 214 3012)" fill="#82C3EC" fill-opacity="0.3"/>
<circle cx="45" cy="45" r="45" transform="matrix(-1 0 0 1 464 2659)" fill="#82C3EC" fill-opacity="0.3"/>
<circle cx="34.5" cy="34.5" r="34.5" transform="matrix(-1 0 0 1 470 2951)" fill="#82C3EC" fill-opacity="0.3"/>
<circle cx="34.5" cy="34.5" r="34.5" transform="matrix(-1 0 0 1 949 2897)" fill="#82C3EC" fill-opacity="0.3"/>
<circle cx="34.5" cy="34.5" r="34.5" transform="matrix(-1 0 0 1 900 1251)" fill="#82C3EC" fill-opacity="0.3"/>
<circle cx="100" cy="100" r="100" transform="matrix(-1 0 0 1 320 1126)" fill="#82C3EC" fill-opacity="0.3"/>
<circle cx="61.5" cy="61.5" r="61.5" transform="matrix(-1 0 0 1 1096 1411)" fill="#82C3EC" fill-opacity="0.3"/>
<circle cx="61.5" cy="61.5" r="61.5" transform="matrix(-1 0 0 1 780 1508)" fill="#82C3EC" fill-opacity="0.3"/>
<circle cx="45" cy="45" r="45" transform="matrix(-1 0 0 1 785 1280)" fill="#82C3EC" fill-opacity="0.3"/>
<circle cx="45" cy="45" r="45" transform="matrix(-1 0 0 1 210 1746)" fill="#82C3EC" fill-opacity="0.3"/>
<circle cx="45" cy="45" r="45" transform="matrix(-1 0 0 1 460 1393)" fill="#82C3EC" fill-opacity="0.3"/>
<circle cx="34.5" cy="34.5" r="34.5" transform="matrix(-1 0 0 1 466 1685)" fill="#82C3EC" fill-opacity="0.3"/>
<circle cx="34.5" cy="34.5" r="34.5" transform="matrix(-1 0 0 1 945 1631)" fill="#82C3EC" fill-opacity="0.3"/>
<circle cx="34.5" cy="34.5" r="34.5" transform="matrix(-1 0 0 1 896 -15)" fill="#82C3EC" fill-opacity="0.3"/>
</g>
<defs>
<clipPath id="clip0_26_77">
<rect width="1366" height="3226" fill="white"/>
</clipPath>
</defs>
</svg>
